STARTFONT   2.1
FONT -windows-00 Starmap-medium-r-normal-sans-8-60-96-96-p-60-microsoft-cp1252
SIZE  6  96   96
FONTBOUNDINGBOX 8  8  0  -1
STARTPROPERTIES  4
FONT_ASCENT 7
FONT_DESCENT 1
CAP_HEIGHT 7
DEFAULT_CHAR 8192
ENDPROPERTIES
CHARS  224
STARTCHAR 0  
ENCODING 32
SWIDTH    5000    0 
DWIDTH    5    0 
BBX  5  8  0   -1
BITMAP
00
00
00
00
00
00
00
00
ENDCHAR
STARTCHAR 1  
ENCODING 33
SWIDTH    3000    0 
DWIDTH    3    0 
BBX  3  8  0   -1
BITMAP
20
20
20
20
20
00
20
00
ENDCHAR
STARTCHAR 2  
ENCODING 34
SWIDTH    6000    0 
DWIDTH    6    0 
BBX  6  8  0   -1
BITMAP
28
28
00
00
00
00
00
00
ENDCHAR
STARTCHAR 3  
ENCODING 35
SWIDTH    7000    0 
DWIDTH    7    0 
BBX  7  8  0   -1
BITMAP
24
24
5A
24
5A
24
24
00
ENDCHAR
STARTCHAR 4  
ENCODING 36
SWIDTH    7000    0 
DWIDTH    7    0 
BBX  7  8  0   -1
BITMAP
08
1C
2A
28
14
0A
2A
1C
ENDCHAR
STARTCHAR 5  
ENCODING 37
SWIDTH    7000    0 
DWIDTH    7    0 
BBX  7  8  0   -1
BITMAP
42
A4
48
10
24
4A
84
00
ENDCHAR
STARTCHAR 6  
ENCODING 38
SWIDTH    7000    0 
DWIDTH    7    0 
BBX  7  8  0   -1
BITMAP
80
80
B0
20
30
04
0A
04
ENDCHAR
STARTCHAR 7  
ENCODING 39
SWIDTH    4000    0 
DWIDTH    4    0 
BBX  4  8  0   -1
BITMAP
20
20
00
00
00
00
00
00
ENDCHAR
STARTCHAR 8  
ENCODING 40
SWIDTH    5000    0 
DWIDTH    5    0 
BBX  5  8  0   -1
BITMAP
10
20
20
20
20
20
10
00
ENDCHAR
STARTCHAR 9  
ENCODING 41
SWIDTH    5000    0 
DWIDTH    5    0 
BBX  5  8  0   -1
BITMAP
20
10
10
10
10
10
20
00
ENDCHAR
STARTCHAR 10  
ENCODING 42
SWIDTH    7000    0 
DWIDTH    7    0 
BBX  7  8  0   -1
BITMAP
00
6C
10
7C
10
6C
00
00
ENDCHAR
STARTCHAR 11  
ENCODING 43
SWIDTH    6000    0 
DWIDTH    6    0 
BBX  6  8  0   -1
BITMAP
00
10
10
38
10
10
00
00
ENDCHAR
STARTCHAR 12  
ENCODING 44
SWIDTH    3000    0 
DWIDTH    3    0 
BBX  3  8  0   -1
BITMAP
00
00
00
00
00
40
40
80
ENDCHAR
STARTCHAR 13  
ENCODING 45
SWIDTH    6000    0 
DWIDTH    6    0 
BBX  6  8  0   -1
BITMAP
00
00
00
3C
00
00
00
00
ENDCHAR
STARTCHAR 14  
ENCODING 46
SWIDTH    3000    0 
DWIDTH    3    0 
BBX  3  8  0   -1
BITMAP
00
00
00
00
00
40
40
00
ENDCHAR
STARTCHAR 15  
ENCODING 47
SWIDTH    7000    0 
DWIDTH    7    0 
BBX  7  8  0   -1
BITMAP
02
04
08
10
20
40
80
00
ENDCHAR
STARTCHAR 16  
ENCODING 48
SWIDTH    7000    0 
DWIDTH    7    0 
BBX  7  8  0   -1
BITMAP
1C
22
26
2A
32
22
1C
00
ENDCHAR
STARTCHAR 17  
ENCODING 49
SWIDTH    5000    0 
DWIDTH    5    0 
BBX  5  8  0   -1
BITMAP
30
10
10
10
10
10
38
00
ENDCHAR
STARTCHAR 18  
ENCODING 50
SWIDTH    7000    0 
DWIDTH    7    0 
BBX  7  8  0   -1
BITMAP
1C
22
02
1C
20
20
3E
00
ENDCHAR
STARTCHAR 19  
ENCODING 51
SWIDTH    7000    0 
DWIDTH    7    0 
BBX  7  8  0   -1
BITMAP
1C
22
02
1C
02
22
1C
00
ENDCHAR
STARTCHAR 20  
ENCODING 52
SWIDTH    7000    0 
DWIDTH    7    0 
BBX  7  8  0   -1
BITMAP
06
0A
12
22
3C
02
02
00
ENDCHAR
STARTCHAR 21  
ENCODING 53
SWIDTH    7000    0 
DWIDTH    7    0 
BBX  7  8  0   -1
BITMAP
3E
20
20
1C
02
22
1C
00
ENDCHAR
STARTCHAR 22  
ENCODING 54
SWIDTH    7000    0 
DWIDTH    7    0 
BBX  7  8  0   -1
BITMAP
1C
20
20
1C
22
22
1C
00
ENDCHAR
STARTCHAR 23  
ENCODING 55
SWIDTH    7000    0 
DWIDTH    7    0 
BBX  7  8  0   -1
BITMAP
3E
02
04
08
10
20
20
00
ENDCHAR
STARTCHAR 24  
ENCODING 56
SWIDTH    7000    0 
DWIDTH    7    0 
BBX  7  8  0   -1
BITMAP
1C
22
22
1C
22
22
1C
00
ENDCHAR
STARTCHAR 25  
ENCODING 57
SWIDTH    7000    0 
DWIDTH    7    0 
BBX  7  8  0   -1
BITMAP
1C
22
22
1C
02
02
1C
00
ENDCHAR
STARTCHAR 26  
ENCODING 58
SWIDTH    7000    0 
DWIDTH    7    0 
BBX  7  8  0   -1
BITMAP
00
10
10
00
00
10
10
00
ENDCHAR
STARTCHAR 27  
ENCODING 59
SWIDTH    7000    0 
DWIDTH    7    0 
BBX  7  8  0   -1
BITMAP
00
10
10
00
00
10
10
20
ENDCHAR
STARTCHAR 28  
ENCODING 60
SWIDTH    7000    0 
DWIDTH    7    0 
BBX  7  8  0   -1
BITMAP
04
08
10
60
10
08
04
00
ENDCHAR
STARTCHAR 29  
ENCODING 61
SWIDTH    6000    0 
DWIDTH    6    0 
BBX  6  8  0   -1
BITMAP
00
00
3C
00
3C
00
00
00
ENDCHAR
STARTCHAR 30  
ENCODING 62
SWIDTH    7000    0 
DWIDTH    7    0 
BBX  7  8  0   -1
BITMAP
40
20
10
0C
10
20
40
00
ENDCHAR
STARTCHAR 31  
ENCODING 63
SWIDTH    7000    0 
DWIDTH    7    0 
BBX  7  8  0   -1
BITMAP
1C
22
02
1C
20
00
20
00
ENDCHAR
STARTCHAR 32  
ENCODING 64
SWIDTH    8000    0 
DWIDTH    8    0 
BBX  8  8  0   -1
BITMAP
1E
21
2D
2B
2F
20
1E
00
ENDCHAR
STARTCHAR 33  
ENCODING 65
SWIDTH    7000    0 
DWIDTH    7    0 
BBX  7  8  0   -1
BITMAP
08
14
22
22
1C
22
22
00
ENDCHAR
STARTCHAR 34  
ENCODING 66
SWIDTH    7000    0 
DWIDTH    7    0 
BBX  7  8  0   -1
BITMAP
3C
22
22
3C
22
22
3C
00
ENDCHAR
STARTCHAR 35  
ENCODING 67
SWIDTH    7000    0 
DWIDTH    7    0 
BBX  7  8  0   -1
BITMAP
1C
22
20
20
20
22
1C
00
ENDCHAR
STARTCHAR 36  
ENCODING 68
SWIDTH    7000    0 
DWIDTH    7    0 
BBX  7  8  0   -1
BITMAP
3C
22
22
22
22
22
3C
00
ENDCHAR
STARTCHAR 37  
ENCODING 69
SWIDTH    7000    0 
DWIDTH    7    0 
BBX  7  8  0   -1
BITMAP
1E
20
20
1C
20
20
1E
00
ENDCHAR
STARTCHAR 38  
ENCODING 70
SWIDTH    7000    0 
DWIDTH    7    0 
BBX  7  8  0   -1
BITMAP
1E
20
20
1C
20
20
20
00
ENDCHAR
STARTCHAR 39  
ENCODING 71
SWIDTH    7000    0 
DWIDTH    7    0 
BBX  7  8  0   -1
BITMAP
1C
22
20
20
2E
22
1C
00
ENDCHAR
STARTCHAR 40  
ENCODING 72
SWIDTH    7000    0 
DWIDTH    7    0 
BBX  7  8  0   -1
BITMAP
22
22
22
1C
22
22
22
00
ENDCHAR
STARTCHAR 41  
ENCODING 73
SWIDTH    7000    0 
DWIDTH    7    0 
BBX  7  8  0   -1
BITMAP
36
08
08
08
08
08
36
00
ENDCHAR
STARTCHAR 42  
ENCODING 74
SWIDTH    7000    0 
DWIDTH    7    0 
BBX  7  8  0   -1
BITMAP
0C
02
02
02
02
22
1C
00
ENDCHAR
STARTCHAR 43  
ENCODING 75
SWIDTH    7000    0 
DWIDTH    7    0 
BBX  7  8  0   -1
BITMAP
22
24
28
30
28
24
22
00
ENDCHAR
STARTCHAR 44  
ENCODING 76
SWIDTH    6000    0 
DWIDTH    6    0 
BBX  6  8  0   -1
BITMAP
20
20
20
20
20
20
3C
00
ENDCHAR
STARTCHAR 45  
ENCODING 77
SWIDTH    8000    0 
DWIDTH    8    0 
BBX  8  8  0   -1
BITMAP
1A
25
25
25
25
25
25
00
ENDCHAR
STARTCHAR 46  
ENCODING 78
SWIDTH    7000    0 
DWIDTH    7    0 
BBX  7  8  0   -1
BITMAP
22
22
32
2A
26
22
22
00
ENDCHAR
STARTCHAR 47  
ENCODING 79
SWIDTH    7000    0 
DWIDTH    7    0 
BBX  7  8  0   -1
BITMAP
1C
22
22
22
22
22
1C
00
ENDCHAR
STARTCHAR 48  
ENCODING 80
SWIDTH    7000    0 
DWIDTH    7    0 
BBX  7  8  0   -1
BITMAP
3C
22
22
3C
20
20
20
00
ENDCHAR
STARTCHAR 49  
ENCODING 81
SWIDTH    7000    0 
DWIDTH    7    0 
BBX  7  8  0   -1
BITMAP
1C
22
22
22
2A
24
1A
00
ENDCHAR
STARTCHAR 50  
ENCODING 82
SWIDTH    7000    0 
DWIDTH    7    0 
BBX  7  8  0   -1
BITMAP
3C
22
22
3C
28
24
22
00
ENDCHAR
STARTCHAR 51  
ENCODING 83
SWIDTH    7000    0 
DWIDTH    7    0 
BBX  7  8  0   -1
BITMAP
1C
22
20
1C
02
22
1C
00
ENDCHAR
STARTCHAR 52  
ENCODING 84
SWIDTH    7000    0 
DWIDTH    7    0 
BBX  7  8  0   -1
BITMAP
36
08
08
08
08
08
08
00
ENDCHAR
STARTCHAR 53  
ENCODING 85
SWIDTH    7000    0 
DWIDTH    7    0 
BBX  7  8  0   -1
BITMAP
22
22
22
22
22
22
1C
00
ENDCHAR
STARTCHAR 54  
ENCODING 86
SWIDTH    7000    0 
DWIDTH    7    0 
BBX  7  8  0   -1
BITMAP
22
22
22
22
22
14
08
00
ENDCHAR
STARTCHAR 55  
ENCODING 87
SWIDTH    8000    0 
DWIDTH    8    0 
BBX  8  8  0   -1
BITMAP
25
25
25
25
25
25
1A
00
ENDCHAR
STARTCHAR 56  
ENCODING 88
SWIDTH    7000    0 
DWIDTH    7    0 
BBX  7  8  0   -1
BITMAP
22
22
14
08
14
22
22
00
ENDCHAR
STARTCHAR 57  
ENCODING 89
SWIDTH    7000    0 
DWIDTH    7    0 
BBX  7  8  0   -1
BITMAP
22
22
22
14
08
08
08
00
ENDCHAR
STARTCHAR 58  
ENCODING 90
SWIDTH    7000    0 
DWIDTH    7    0 
BBX  7  8  0   -1
BITMAP
3E
02
04
08
10
20
3E
00
ENDCHAR
STARTCHAR 59  
ENCODING 91
SWIDTH    5000    0 
DWIDTH    5    0 
BBX  5  8  0   -1
BITMAP
30
20
20
20
20
20
30
00
ENDCHAR
STARTCHAR 60  
ENCODING 92
SWIDTH    7000    0 
DWIDTH    7    0 
BBX  7  8  0   -1
BITMAP
80
40
20
10
08
04
02
00
ENDCHAR
STARTCHAR 61  
ENCODING 93
SWIDTH    5000    0 
DWIDTH    5    0 
BBX  5  8  0   -1
BITMAP
30
10
10
10
10
10
30
00
ENDCHAR
STARTCHAR 62  
ENCODING 94
SWIDTH    7000    0 
DWIDTH    7    0 
BBX  7  8  0   -1
BITMAP
18
64
00
00
00
00
00
00
ENDCHAR
STARTCHAR 63  
ENCODING 95
SWIDTH    7000    0 
DWIDTH    7    0 
BBX  7  8  0   -1
BITMAP
00
00
00
00
00
00
00
7E
ENDCHAR
STARTCHAR 64  
ENCODING 96
SWIDTH    5000    0 
DWIDTH    5    0 
BBX  5  8  0   -1
BITMAP
20
20
00
00
00
00
00
00
ENDCHAR
STARTCHAR 65  
ENCODING 97
SWIDTH    7000    0 
DWIDTH    7    0 
BBX  7  8  0   -1
BITMAP
00
00
1C
02
1E
22
3E
00
ENDCHAR
STARTCHAR 66  
ENCODING 98
SWIDTH    7000    0 
DWIDTH    7    0 
BBX  7  8  0   -1
BITMAP
20
20
1C
22
22
22
1C
00
ENDCHAR
STARTCHAR 67  
ENCODING 99
SWIDTH    7000    0 
DWIDTH    7    0 
BBX  7  8  0   -1
BITMAP
00
00
1C
22
20
20
1C
00
ENDCHAR
STARTCHAR 68  
ENCODING 100
SWIDTH    7000    0 
DWIDTH    7    0 
BBX  7  8  0   -1
BITMAP
02
02
1C
22
22
22
1C
00
ENDCHAR
STARTCHAR 69  
ENCODING 101
SWIDTH    7000    0 
DWIDTH    7    0 
BBX  7  8  0   -1
BITMAP
00
00
1C
22
38
20
1E
00
ENDCHAR
STARTCHAR 70  
ENCODING 102
SWIDTH    7000    0 
DWIDTH    7    0 
BBX  7  8  0   -1
BITMAP
00
00
1C
22
38
20
20
20
ENDCHAR
STARTCHAR 71  
ENCODING 103
SWIDTH    7000    0 
DWIDTH    7    0 
BBX  7  8  0   -1
BITMAP
00
00
1C
22
26
3A
02
1C
ENDCHAR
STARTCHAR 72  
ENCODING 104
SWIDTH    7000    0 
DWIDTH    7    0 
BBX  7  8  0   -1
BITMAP
20
20
1C
22
22
22
22
00
ENDCHAR
STARTCHAR 73  
ENCODING 105
SWIDTH    3000    0 
DWIDTH    3    0 
BBX  3  8  0   -1
BITMAP
00
00
20
20
20
20
20
00
ENDCHAR
STARTCHAR 74  
ENCODING 106
SWIDTH    7000    0 
DWIDTH    7    0 
BBX  7  8  0   -1
BITMAP
00
00
02
02
02
02
22
1C
ENDCHAR
STARTCHAR 75  
ENCODING 107
SWIDTH    7000    0 
DWIDTH    7    0 
BBX  7  8  0   -1
BITMAP
20
20
24
28
30
28
26
00
ENDCHAR
STARTCHAR 76  
ENCODING 108
SWIDTH    3000    0 
DWIDTH    3    0 
BBX  3  8  0   -1
BITMAP
20
20
20
20
20
20
20
00
ENDCHAR
STARTCHAR 77  
ENCODING 109
SWIDTH    8000    0 
DWIDTH    8    0 
BBX  8  8  0   -1
BITMAP
00
00
1A
25
25
25
25
00
ENDCHAR
STARTCHAR 78  
ENCODING 110
SWIDTH    7000    0 
DWIDTH    7    0 
BBX  7  8  0   -1
BITMAP
00
00
3C
22
22
22
22
00
ENDCHAR
STARTCHAR 79  
ENCODING 111
SWIDTH    7000    0 
DWIDTH    7    0 
BBX  7  8  0   -1
BITMAP
00
00
1C
22
22
22
1C
00
ENDCHAR
STARTCHAR 80  
ENCODING 112
SWIDTH    7000    0 
DWIDTH    7    0 
BBX  7  8  0   -1
BITMAP
00
00
1C
22
22
32
2C
20
ENDCHAR
STARTCHAR 81  
ENCODING 113
SWIDTH    7000    0 
DWIDTH    7    0 
BBX  7  8  0   -1
BITMAP
00
00
1C
22
22
26
1A
02
ENDCHAR
STARTCHAR 82  
ENCODING 114
SWIDTH    6000    0 
DWIDTH    6    0 
BBX  6  8  0   -1
BITMAP
00
00
18
24
20
20
20
00
ENDCHAR
STARTCHAR 83  
ENCODING 115
SWIDTH    7000    0 
DWIDTH    7    0 
BBX  7  8  0   -1
BITMAP
00
00
1C
20
3E
02
1C
00
ENDCHAR
STARTCHAR 84  
ENCODING 116
SWIDTH    7000    0 
DWIDTH    7    0 
BBX  7  8  0   -1
BITMAP
08
08
36
08
08
08
04
00
ENDCHAR
STARTCHAR 85  
ENCODING 117
SWIDTH    7000    0 
DWIDTH    7    0 
BBX  7  8  0   -1
BITMAP
00
00
22
22
22
22
1C
00
ENDCHAR
STARTCHAR 86  
ENCODING 118
SWIDTH    7000    0 
DWIDTH    7    0 
BBX  7  8  0   -1
BITMAP
00
00
22
22
22
14
08
00
ENDCHAR
STARTCHAR 87  
ENCODING 119
SWIDTH    8000    0 
DWIDTH    8    0 
BBX  8  8  0   -1
BITMAP
00
00
25
25
25
25
1A
00
ENDCHAR
STARTCHAR 88  
ENCODING 120
SWIDTH    7000    0 
DWIDTH    7    0 
BBX  7  8  0   -1
BITMAP
00
00
22
14
08
14
22
00
ENDCHAR
STARTCHAR 89  
ENCODING 121
SWIDTH    7000    0 
DWIDTH    7    0 
BBX  7  8  0   -1
BITMAP
00
00
22
22
14
08
08
10
ENDCHAR
STARTCHAR 90  
ENCODING 122
SWIDTH    7000    0 
DWIDTH    7    0 
BBX  7  8  0   -1
BITMAP
00
00
3E
04
08
10
3E
00
ENDCHAR
STARTCHAR 91  
ENCODING 123
SWIDTH    7000    0 
DWIDTH    7    0 
BBX  7  8  0   -1
BITMAP
00
00
00
00
00
00
00
00
ENDCHAR
STARTCHAR 92  
ENCODING 124
SWIDTH    3000    0 
DWIDTH    3    0 
BBX  3  8  0   -1
BITMAP
20
20
20
20
20
20
20
20
ENDCHAR
STARTCHAR 93  
ENCODING 125
SWIDTH    7000    0 
DWIDTH    7    0 
BBX  7  8  0   -1
BITMAP
00
00
00
00
00
00
00
00
ENDCHAR
STARTCHAR 94  
ENCODING 126
SWIDTH    7000    0 
DWIDTH    7    0 
BBX  7  8  0   -1
BITMAP
7C
00
00
00
00
00
00
00
ENDCHAR
STARTCHAR 95  
ENCODING 127
SWIDTH    7000    0 
DWIDTH    7    0 
BBX  7  8  0   -1
BITMAP
00
00
00
00
00
00
10
00
ENDCHAR
STARTCHAR 96  
ENCODING 128
SWIDTH    7000    0 
DWIDTH    7    0 
BBX  7  8  0   -1
BITMAP
00
00
00
00
00
00
00
00
ENDCHAR
STARTCHAR 97  
ENCODING 129
SWIDTH    7000    0 
DWIDTH    7    0 
BBX  7  8  0   -1
BITMAP
00
00
00
00
00
00
10
00
ENDCHAR
STARTCHAR 98  
ENCODING 130
SWIDTH    7000    0 
DWIDTH    7    0 
BBX  7  8  0   -1
BITMAP
00
00
00
00
00
00
10
00
ENDCHAR
STARTCHAR 99  
ENCODING 131
SWIDTH    7000    0 
DWIDTH    7    0 
BBX  7  8  0   -1
BITMAP
00
00
00
00
00
00
10
00
ENDCHAR
STARTCHAR 100  
ENCODING 132
SWIDTH    7000    0 
DWIDTH    7    0 
BBX  7  8  0   -1
BITMAP
00
00
00
00
00
00
10
00
ENDCHAR
STARTCHAR 101  
ENCODING 133
SWIDTH    7000    0 
DWIDTH    7    0 
BBX  7  8  0   -1
BITMAP
00
00
00
00
00
00
10
00
ENDCHAR
STARTCHAR 102  
ENCODING 134
SWIDTH    7000    0 
DWIDTH    7    0 
BBX  7  8  0   -1
BITMAP
00
00
00
00
00
00
10
00
ENDCHAR
STARTCHAR 103  
ENCODING 135
SWIDTH    7000    0 
DWIDTH    7    0 
BBX  7  8  0   -1
BITMAP
00
00
00
00
00
00
10
00
ENDCHAR
STARTCHAR 104  
ENCODING 136
SWIDTH    7000    0 
DWIDTH    7    0 
BBX  7  8  0   -1
BITMAP
00
00
00
00
00
00
10
00
ENDCHAR
STARTCHAR 105  
ENCODING 137
SWIDTH    7000    0 
DWIDTH    7    0 
BBX  7  8  0   -1
BITMAP
00
00
00
00
00
00
10
00
ENDCHAR
STARTCHAR 106  
ENCODING 138
SWIDTH    7000    0 
DWIDTH    7    0 
BBX  7  8  0   -1
BITMAP
00
00
00
00
00
00
00
00
ENDCHAR
STARTCHAR 107  
ENCODING 139
SWIDTH    7000    0 
DWIDTH    7    0 
BBX  7  8  0   -1
BITMAP
00
00
00
00
00
00
00
00
ENDCHAR
STARTCHAR 108  
ENCODING 140
SWIDTH    7000    0 
DWIDTH    7    0 
BBX  7  8  0   -1
BITMAP
00
00
00
00
00
00
00
00
ENDCHAR
STARTCHAR 109  
ENCODING 141
SWIDTH    7000    0 
DWIDTH    7    0 
BBX  7  8  0   -1
BITMAP
00
00
00
00
00
00
10
00
ENDCHAR
STARTCHAR 110  
ENCODING 142
SWIDTH    7000    0 
DWIDTH    7    0 
BBX  7  8  0   -1
BITMAP
00
00
00
00
00
00
10
00
ENDCHAR
STARTCHAR 111  
ENCODING 143
SWIDTH    7000    0 
DWIDTH    7    0 
BBX  7  8  0   -1
BITMAP
00
00
00
00
00
00
10
00
ENDCHAR
STARTCHAR 112  
ENCODING 144
SWIDTH    7000    0 
DWIDTH    7    0 
BBX  7  8  0   -1
BITMAP
00
00
00
00
00
00
10
00
ENDCHAR
STARTCHAR 113  
ENCODING 145
SWIDTH    4000    0 
DWIDTH    4    0 
BBX  4  8  0   -1
BITMAP
00
20
20
00
00
00
00
00
ENDCHAR
STARTCHAR 114  
ENCODING 146
SWIDTH    5000    0 
DWIDTH    5    0 
BBX  5  8  0   -1
BITMAP
00
10
20
00
00
00
00
00
ENDCHAR
STARTCHAR 115  
ENCODING 147
SWIDTH    6000    0 
DWIDTH    6    0 
BBX  6  8  0   -1
BITMAP
00
28
50
00
00
00
00
00
ENDCHAR
STARTCHAR 116  
ENCODING 148
SWIDTH    6000    0 
DWIDTH    6    0 
BBX  6  8  0   -1
BITMAP
00
28
50
00
00
00
00
00
ENDCHAR
STARTCHAR 117  
ENCODING 149
SWIDTH    7000    0 
DWIDTH    7    0 
BBX  7  8  0   -1
BITMAP
00
00
00
00
00
00
10
00
ENDCHAR
STARTCHAR 118  
ENCODING 150
SWIDTH    7000    0 
DWIDTH    7    0 
BBX  7  8  0   -1
BITMAP
00
00
00
00
00
00
10
00
ENDCHAR
STARTCHAR 119  
ENCODING 151
SWIDTH    7000    0 
DWIDTH    7    0 
BBX  7  8  0   -1
BITMAP
00
00
00
00
00
00
10
00
ENDCHAR
STARTCHAR 120  
ENCODING 152
SWIDTH    7000    0 
DWIDTH    7    0 
BBX  7  8  0   -1
BITMAP
00
00
00
00
00
00
10
00
ENDCHAR
STARTCHAR 121  
ENCODING 153
SWIDTH    7000    0 
DWIDTH    7    0 
BBX  7  8  0   -1
BITMAP
00
00
00
00
00
00
00
00
ENDCHAR
STARTCHAR 122  
ENCODING 154
SWIDTH    7000    0 
DWIDTH    7    0 
BBX  7  8  0   -1
BITMAP
00
00
00
00
00
00
00
00
ENDCHAR
STARTCHAR 123  
ENCODING 155
SWIDTH    7000    0 
DWIDTH    7    0 
BBX  7  8  0   -1
BITMAP
00
00
00
00
00
00
00
00
ENDCHAR
STARTCHAR 124  
ENCODING 156
SWIDTH    7000    0 
DWIDTH    7    0 
BBX  7  8  0   -1
BITMAP
00
00
00
00
00
00
00
00
ENDCHAR
STARTCHAR 125  
ENCODING 157
SWIDTH    7000    0 
DWIDTH    7    0 
BBX  7  8  0   -1
BITMAP
00
00
00
00
00
00
10
00
ENDCHAR
STARTCHAR 126  
ENCODING 158
SWIDTH    7000    0 
DWIDTH    7    0 
BBX  7  8  0   -1
BITMAP
00
00
00
00
00
00
10
00
ENDCHAR
STARTCHAR 127  
ENCODING 159
SWIDTH    7000    0 
DWIDTH    7    0 
BBX  7  8  0   -1
BITMAP
00
00
00
00
00
00
00
00
ENDCHAR
STARTCHAR 128  
ENCODING 160
SWIDTH    7000    0 
DWIDTH    7    0 
BBX  7  8  0   -1
BITMAP
00
00
00
00
00
00
10
00
ENDCHAR
STARTCHAR 129  
ENCODING 161
SWIDTH    4000    0 
DWIDTH    4    0 
BBX  4  8  0   -1
BITMAP
00
20
00
20
20
20
20
00
ENDCHAR
STARTCHAR 130  
ENCODING 162
SWIDTH    7000    0 
DWIDTH    7    0 
BBX  7  8  0   -1
BITMAP
00
00
00
00
00
00
00
00
ENDCHAR
STARTCHAR 131  
ENCODING 163
SWIDTH    7000    0 
DWIDTH    7    0 
BBX  7  8  0   -1
BITMAP
08
14
10
28
10
10
38
00
ENDCHAR
STARTCHAR 132  
ENCODING 164
SWIDTH    7000    0 
DWIDTH    7    0 
BBX  7  8  0   -1
BITMAP
00
00
00
00
00
00
00
00
ENDCHAR
STARTCHAR 133  
ENCODING 165
SWIDTH    7000    0 
DWIDTH    7    0 
BBX  7  8  0   -1
BITMAP
00
00
00
00
00
00
00
00
ENDCHAR
STARTCHAR 134  
ENCODING 166
SWIDTH    5000    0 
DWIDTH    5    0 
BBX  5  8  0   -1
BITMAP
10
10
10
00
10
10
10
00
ENDCHAR
STARTCHAR 135  
ENCODING 167
SWIDTH    7000    0 
DWIDTH    7    0 
BBX  7  8  0   -1
BITMAP
1C
20
18
66
18
04
38
00
ENDCHAR
STARTCHAR 136  
ENCODING 168
SWIDTH    7000    0 
DWIDTH    7    0 
BBX  7  8  0   -1
BITMAP
00
24
00
00
00
00
00
00
ENDCHAR
STARTCHAR 137  
ENCODING 169
SWIDTH    7000    0 
DWIDTH    7    0 
BBX  7  8  0   -1
BITMAP
3C
42
48
50
48
42
3C
00
ENDCHAR
STARTCHAR 138  
ENCODING 170
SWIDTH    7000    0 
DWIDTH    7    0 
BBX  7  8  0   -1
BITMAP
00
00
00
00
00
00
00
00
ENDCHAR
STARTCHAR 139  
ENCODING 171
SWIDTH    7000    0 
DWIDTH    7    0 
BBX  7  8  0   -1
BITMAP
00
00
00
00
00
00
00
00
ENDCHAR
STARTCHAR 140  
ENCODING 172
SWIDTH    7000    0 
DWIDTH    7    0 
BBX  7  8  0   -1
BITMAP
00
00
00
70
00
00
00
00
ENDCHAR
STARTCHAR 141  
ENCODING 173
SWIDTH    7000    0 
DWIDTH    7    0 
BBX  7  8  0   -1
BITMAP
00
00
00
70
00
00
00
00
ENDCHAR
STARTCHAR 142  
ENCODING 174
SWIDTH    7000    0 
DWIDTH    7    0 
BBX  7  8  0   -1
BITMAP
3C
42
58
58
54
42
3C
00
ENDCHAR
STARTCHAR 143  
ENCODING 175
SWIDTH    7000    0 
DWIDTH    7    0 
BBX  7  8  0   -1
BITMAP
7C
00
00
00
00
00
00
00
ENDCHAR
STARTCHAR 144  
ENCODING 176
SWIDTH    5000    0 
DWIDTH    5    0 
BBX  5  8  0   -1
BITMAP
00
30
18
00
00
00
00
00
ENDCHAR
STARTCHAR 145  
ENCODING 177
SWIDTH    7000    0 
DWIDTH    7    0 
BBX  7  8  0   -1
BITMAP
10
10
7C
10
10
00
7C
00
ENDCHAR
STARTCHAR 146  
ENCODING 178
SWIDTH    7000    0 
DWIDTH    7    0 
BBX  7  8  0   -1
BITMAP
00
30
00
10
30
00
00
00
ENDCHAR
STARTCHAR 147  
ENCODING 179
SWIDTH    7000    0 
DWIDTH    7    0 
BBX  7  8  0   -1
BITMAP
00
30
00
10
30
00
00
00
ENDCHAR
STARTCHAR 148  
ENCODING 180
SWIDTH    7000    0 
DWIDTH    7    0 
BBX  7  8  0   -1
BITMAP
00
30
00
00
00
00
00
00
ENDCHAR
STARTCHAR 149  
ENCODING 181
SWIDTH    7000    0 
DWIDTH    7    0 
BBX  7  8  0   -1
BITMAP
00
00
00
00
00
00
00
00
ENDCHAR
STARTCHAR 150  
ENCODING 182
SWIDTH    7000    0 
DWIDTH    7    0 
BBX  7  8  0   -1
BITMAP
00
3E
54
14
14
14
14
00
ENDCHAR
STARTCHAR 151  
ENCODING 183
SWIDTH    7000    0 
DWIDTH    7    0 
BBX  7  8  0   -1
BITMAP
00
00
00
20
20
00
00
00
ENDCHAR
STARTCHAR 152  
ENCODING 184
SWIDTH    7000    0 
DWIDTH    7    0 
BBX  7  8  0   -1
BITMAP
00
00
00
00
00
08
78
00
ENDCHAR
STARTCHAR 153  
ENCODING 185
SWIDTH    7000    0 
DWIDTH    7    0 
BBX  7  8  0   -1
BITMAP
00
10
30
10
30
00
00
00
ENDCHAR
STARTCHAR 154  
ENCODING 186
SWIDTH    7000    0 
DWIDTH    7    0 
BBX  7  8  0   -1
BITMAP
00
30
40
40
30
00
00
00
ENDCHAR
STARTCHAR 155  
ENCODING 187
SWIDTH    7000    0 
DWIDTH    7    0 
BBX  7  8  0   -1
BITMAP
00
00
00
00
00
00
00
00
ENDCHAR
STARTCHAR 156  
ENCODING 188
SWIDTH    7000    0 
DWIDTH    7    0 
BBX  7  8  0   -1
BITMAP
00
00
00
00
00
00
00
00
ENDCHAR
STARTCHAR 157  
ENCODING 189
SWIDTH    7000    0 
DWIDTH    7    0 
BBX  7  8  0   -1
BITMAP
00
00
00
00
00
00
00
00
ENDCHAR
STARTCHAR 158  
ENCODING 190
SWIDTH    7000    0 
DWIDTH    7    0 
BBX  7  8  0   -1
BITMAP
00
00
00
00
00
00
00
00
ENDCHAR
STARTCHAR 159  
ENCODING 191
SWIDTH    7000    0 
DWIDTH    7    0 
BBX  7  8  0   -1
BITMAP
00
00
00
00
00
00
00
00
ENDCHAR
STARTCHAR 160  
ENCODING 192
SWIDTH    7000    0 
DWIDTH    7    0 
BBX  7  8  0   -1
BITMAP
00
00
00
00
00
00
00
00
ENDCHAR
STARTCHAR 161  
ENCODING 193
SWIDTH    7000    0 
DWIDTH    7    0 
BBX  7  8  0   -1
BITMAP
00
00
00
00
00
00
00
00
ENDCHAR
STARTCHAR 162  
ENCODING 194
SWIDTH    7000    0 
DWIDTH    7    0 
BBX  7  8  0   -1
BITMAP
00
00
00
00
00
00
00
00
ENDCHAR
STARTCHAR 163  
ENCODING 195
SWIDTH    7000    0 
DWIDTH    7    0 
BBX  7  8  0   -1
BITMAP
00
00
00
00
00
00
00
00
ENDCHAR
STARTCHAR 164  
ENCODING 196
SWIDTH    7000    0 
DWIDTH    7    0 
BBX  7  8  0   -1
BITMAP
00
00
00
00
00
00
00
00
ENDCHAR
STARTCHAR 165  
ENCODING 197
SWIDTH    7000    0 
DWIDTH    7    0 
BBX  7  8  0   -1
BITMAP
00
00
00
00
00
00
00
00
ENDCHAR
STARTCHAR 166  
ENCODING 198
SWIDTH    7000    0 
DWIDTH    7    0 
BBX  7  8  0   -1
BITMAP
00
00
00
00
00
00
00
00
ENDCHAR
STARTCHAR 167  
ENCODING 199
SWIDTH    7000    0 
DWIDTH    7    0 
BBX  7  8  0   -1
BITMAP
00
00
00
00
00
00
00
00
ENDCHAR
STARTCHAR 168  
ENCODING 200
SWIDTH    7000    0 
DWIDTH    7    0 
BBX  7  8  0   -1
BITMAP
00
00
00
00
00
00
00
00
ENDCHAR
STARTCHAR 169  
ENCODING 201
SWIDTH    7000    0 
DWIDTH    7    0 
BBX  7  8  0   -1
BITMAP
00
00
00
00
00
00
00
00
ENDCHAR
STARTCHAR 170  
ENCODING 202
SWIDTH    7000    0 
DWIDTH    7    0 
BBX  7  8  0   -1
BITMAP
00
00
00
00
00
00
00
00
ENDCHAR
STARTCHAR 171  
ENCODING 203
SWIDTH    7000    0 
DWIDTH    7    0 
BBX  7  8  0   -1
BITMAP
00
00
00
00
00
00
00
00
ENDCHAR
STARTCHAR 172  
ENCODING 204
SWIDTH    7000    0 
DWIDTH    7    0 
BBX  7  8  0   -1
BITMAP
00
00
00
00
00
00
00
00
ENDCHAR
STARTCHAR 173  
ENCODING 205
SWIDTH    7000    0 
DWIDTH    7    0 
BBX  7  8  0   -1
BITMAP
00
00
00
00
00
00
00
00
ENDCHAR
STARTCHAR 174  
ENCODING 206
SWIDTH    7000    0 
DWIDTH    7    0 
BBX  7  8  0   -1
BITMAP
00
00
00
00
00
00
00
00
ENDCHAR
STARTCHAR 175  
ENCODING 207
SWIDTH    7000    0 
DWIDTH    7    0 
BBX  7  8  0   -1
BITMAP
00
00
00
00
00
00
00
00
ENDCHAR
STARTCHAR 176  
ENCODING 208
SWIDTH    7000    0 
DWIDTH    7    0 
BBX  7  8  0   -1
BITMAP
00
00
00
00
00
00
00
00
ENDCHAR
STARTCHAR 177  
ENCODING 209
SWIDTH    7000    0 
DWIDTH    7    0 
BBX  7  8  0   -1
BITMAP
00
00
00
00
00
00
00
00
ENDCHAR
STARTCHAR 178  
ENCODING 210
SWIDTH    7000    0 
DWIDTH    7    0 
BBX  7  8  0   -1
BITMAP
00
00
00
00
00
00
00
00
ENDCHAR
STARTCHAR 179  
ENCODING 211
SWIDTH    7000    0 
DWIDTH    7    0 
BBX  7  8  0   -1
BITMAP
00
00
00
00
00
00
00
00
ENDCHAR
STARTCHAR 180  
ENCODING 212
SWIDTH    7000    0 
DWIDTH    7    0 
BBX  7  8  0   -1
BITMAP
00
00
00
00
00
00
00
00
ENDCHAR
STARTCHAR 181  
ENCODING 213
SWIDTH    7000    0 
DWIDTH    7    0 
BBX  7  8  0   -1
BITMAP
00
00
00
00
00
00
00
00
ENDCHAR
STARTCHAR 182  
ENCODING 214
SWIDTH    7000    0 
DWIDTH    7    0 
BBX  7  8  0   -1
BITMAP
00
00
00
00
00
00
00
00
ENDCHAR
STARTCHAR 183  
ENCODING 215
SWIDTH    7000    0 
DWIDTH    7    0 
BBX  7  8  0   -1
BITMAP
00
00
00
00
00
00
00
00
ENDCHAR
STARTCHAR 184  
ENCODING 216
SWIDTH    7000    0 
DWIDTH    7    0 
BBX  7  8  0   -1
BITMAP
00
00
00
00
00
00
00
00
ENDCHAR
STARTCHAR 185  
ENCODING 217
SWIDTH    7000    0 
DWIDTH    7    0 
BBX  7  8  0   -1
BITMAP
00
00
00
00
00
00
00
00
ENDCHAR
STARTCHAR 186  
ENCODING 218
SWIDTH    7000    0 
DWIDTH    7    0 
BBX  7  8  0   -1
BITMAP
00
00
00
00
00
00
00
00
ENDCHAR
STARTCHAR 187  
ENCODING 219
SWIDTH    7000    0 
DWIDTH    7    0 
BBX  7  8  0   -1
BITMAP
00
00
00
00
00
00
00
00
ENDCHAR
STARTCHAR 188  
ENCODING 220
SWIDTH    7000    0 
DWIDTH    7    0 
BBX  7  8  0   -1
BITMAP
00
00
00
00
00
00
00
00
ENDCHAR
STARTCHAR 189  
ENCODING 221
SWIDTH    7000    0 
DWIDTH    7    0 
BBX  7  8  0   -1
BITMAP
00
00
00
00
00
00
00
00
ENDCHAR
STARTCHAR 190  
ENCODING 222
SWIDTH    7000    0 
DWIDTH    7    0 
BBX  7  8  0   -1
BITMAP
00
00
00
00
00
00
00
00
ENDCHAR
STARTCHAR 191  
ENCODING 223
SWIDTH    7000    0 
DWIDTH    7    0 
BBX  7  8  0   -1
BITMAP
00
00
00
00
00
00
00
00
ENDCHAR
STARTCHAR 192  
ENCODING 224
SWIDTH    7000    0 
DWIDTH    7    0 
BBX  7  8  0   -1
BITMAP
00
00
00
00
00
00
00
00
ENDCHAR
STARTCHAR 193  
ENCODING 225
SWIDTH    7000    0 
DWIDTH    7    0 
BBX  7  8  0   -1
BITMAP
00
00
00
00
00
00
00
00
ENDCHAR
STARTCHAR 194  
ENCODING 226
SWIDTH    7000    0 
DWIDTH    7    0 
BBX  7  8  0   -1
BITMAP
00
00
00
00
00
00
00
00
ENDCHAR
STARTCHAR 195  
ENCODING 227
SWIDTH    7000    0 
DWIDTH    7    0 
BBX  7  8  0   -1
BITMAP
00
00
00
00
00
00
00
00
ENDCHAR
STARTCHAR 196  
ENCODING 228
SWIDTH    7000    0 
DWIDTH    7    0 
BBX  7  8  0   -1
BITMAP
00
00
00
00
00
00
00
00
ENDCHAR
STARTCHAR 197  
ENCODING 229
SWIDTH    7000    0 
DWIDTH    7    0 
BBX  7  8  0   -1
BITMAP
00
00
00
00
00
00
00
00
ENDCHAR
STARTCHAR 198  
ENCODING 230
SWIDTH    7000    0 
DWIDTH    7    0 
BBX  7  8  0   -1
BITMAP
00
00
00
00
00
00
00
00
ENDCHAR
STARTCHAR 199  
ENCODING 231
SWIDTH    7000    0 
DWIDTH    7    0 
BBX  7  8  0   -1
BITMAP
00
00
00
00
00
00
00
00
ENDCHAR
STARTCHAR 200  
ENCODING 232
SWIDTH    7000    0 
DWIDTH    7    0 
BBX  7  8  0   -1
BITMAP
00
00
00
00
00
00
00
00
ENDCHAR
STARTCHAR 201  
ENCODING 233
SWIDTH    7000    0 
DWIDTH    7    0 
BBX  7  8  0   -1
BITMAP
00
00
00
00
00
00
00
00
ENDCHAR
STARTCHAR 202  
ENCODING 234
SWIDTH    7000    0 
DWIDTH    7    0 
BBX  7  8  0   -1
BITMAP
00
00
00
00
00
00
00
00
ENDCHAR
STARTCHAR 203  
ENCODING 235
SWIDTH    7000    0 
DWIDTH    7    0 
BBX  7  8  0   -1
BITMAP
00
00
00
00
00
00
00
00
ENDCHAR
STARTCHAR 204  
ENCODING 236
SWIDTH    7000    0 
DWIDTH    7    0 
BBX  7  8  0   -1
BITMAP
00
00
00
00
00
00
00
00
ENDCHAR
STARTCHAR 205  
ENCODING 237
SWIDTH    7000    0 
DWIDTH    7    0 
BBX  7  8  0   -1
BITMAP
00
00
00
00
00
00
00
00
ENDCHAR
STARTCHAR 206  
ENCODING 238
SWIDTH    7000    0 
DWIDTH    7    0 
BBX  7  8  0   -1
BITMAP
00
00
00
00
00
00
00
00
ENDCHAR
STARTCHAR 207  
ENCODING 239
SWIDTH    7000    0 
DWIDTH    7    0 
BBX  7  8  0   -1
BITMAP
00
00
00
00
00
00
00
00
ENDCHAR
STARTCHAR 208  
ENCODING 240
SWIDTH    7000    0 
DWIDTH    7    0 
BBX  7  8  0   -1
BITMAP
00
00
00
00
00
00
00
00
ENDCHAR
STARTCHAR 209  
ENCODING 241
SWIDTH    7000    0 
DWIDTH    7    0 
BBX  7  8  0   -1
BITMAP
00
00
00
00
00
00
00
00
ENDCHAR
STARTCHAR 210  
ENCODING 242
SWIDTH    7000    0 
DWIDTH    7    0 
BBX  7  8  0   -1
BITMAP
00
00
00
00
00
00
00
00
ENDCHAR
STARTCHAR 211  
ENCODING 243
SWIDTH    7000    0 
DWIDTH    7    0 
BBX  7  8  0   -1
BITMAP
00
00
00
00
00
00
00
00
ENDCHAR
STARTCHAR 212  
ENCODING 244
SWIDTH    7000    0 
DWIDTH    7    0 
BBX  7  8  0   -1
BITMAP
00
00
00
00
00
00
00
00
ENDCHAR
STARTCHAR 213  
ENCODING 245
SWIDTH    7000    0 
DWIDTH    7    0 
BBX  7  8  0   -1
BITMAP
00
00
00
00
00
00
00
00
ENDCHAR
STARTCHAR 214  
ENCODING 246
SWIDTH    7000    0 
DWIDTH    7    0 
BBX  7  8  0   -1
BITMAP
00
00
00
00
00
00
00
00
ENDCHAR
STARTCHAR 215  
ENCODING 247
SWIDTH    7000    0 
DWIDTH    7    0 
BBX  7  8  0   -1
BITMAP
00
00
00
00
00
00
00
00
ENDCHAR
STARTCHAR 216  
ENCODING 248
SWIDTH    7000    0 
DWIDTH    7    0 
BBX  7  8  0   -1
BITMAP
00
00
00
00
00
00
00
00
ENDCHAR
STARTCHAR 217  
ENCODING 249
SWIDTH    7000    0 
DWIDTH    7    0 
BBX  7  8  0   -1
BITMAP
00
00
00
00
00
00
00
00
ENDCHAR
STARTCHAR 218  
ENCODING 250
SWIDTH    7000    0 
DWIDTH    7    0 
BBX  7  8  0   -1
BITMAP
00
00
00
00
00
00
00
00
ENDCHAR
STARTCHAR 219  
ENCODING 251
SWIDTH    7000    0 
DWIDTH    7    0 
BBX  7  8  0   -1
BITMAP
00
00
00
00
00
00
00
00
ENDCHAR
STARTCHAR 220  
ENCODING 252
SWIDTH    7000    0 
DWIDTH    7    0 
BBX  7  8  0   -1
BITMAP
00
00
00
00
00
00
00
00
ENDCHAR
STARTCHAR 221  
ENCODING 253
SWIDTH    7000    0 
DWIDTH    7    0 
BBX  7  8  0   -1
BITMAP
00
00
00
00
00
00
00
00
ENDCHAR
STARTCHAR 222  
ENCODING 254
SWIDTH    7000    0 
DWIDTH    7    0 
BBX  7  8  0   -1
BITMAP
00
00
00
00
00
00
00
00
ENDCHAR
STARTCHAR 223  
ENCODING 255
SWIDTH    7000    0 
DWIDTH    7    0 
BBX  7  8  0   -1
BITMAP
00
00
00
00
00
00
00
00
ENDCHAR
ENDFONT
